0
SECTION
2
HEADER
9
$INSUNITS
70
1
9
$ACADVER
1
AC1014
9
$HANDSEED
5
FFFF
0
ENDSEC
0
SECTION
2
TABLES
0
TABLE
2
VPORT
5
8
100
AcDbSymbolTable
0
ENDTAB
0
TABLE
2
LTYPE
5
5
100
AcDbSymbolTable
0
LTYPE
5
14
100
AcDbSymbolTableRecord
100
AcDbLinetypeTableRecord
2
BYBLOCK
70
0
0
LTYPE
5
15
100
AcDbSymbolTableRecord
100
AcDbLinetypeTableRecord
2
BYLAYER
70
0
0
ENDTAB
0
TABLE
2
LAYER
5
2
100
AcDbSymbolTable
70
2
0
LAYER
5
50
100
AcDbSymbolTableRecord
100
AcDbLayerTableRecord
2
0
70
0
6
CONTINUOUS
0
ENDTAB
0
TABLE
2
STYLE
5
3
100
AcDbSymbolTable
70
1
0
STYLE
5
11
100
AcDbSymbolTableRecord
100
AcDbTextStyleTableRecord
2
STANDARD
70
0
0
ENDTAB
0
TABLE
2
VIEW
5
6
100
AcDbSymbolTable
70
0
0
ENDTAB
0
TABLE
2
UCS
5
7
100
AcDbSymbolTable
70
0
0
ENDTAB
0
TABLE
2
APPID
5
9
100
AcDbSymbolTable
70
2
0
APPID
5
12
100
AcDbSymbolTableRecord
100
AcDbRegAppTableRecord
2
ACAD
70
0
0
ENDTAB
0
TABLE
2
DIMSTYLE
5
A
100
AcDbSymbolTable
70
1
0
ENDTAB
0
TABLE
2
BLOCK_RECORD
5
1
100
AcDbSymbolTable
70
1
0
BLOCK_RECORD
5
1F
100
AcDbSymbolTableRecord
100
AcDbBlockTableRecord
2
*MODEL_SPACE
0
BLOCK_RECORD
5
1B
100
AcDbSymbolTableRecord
100
AcDbBlockTableRecord
2
*PAPER_SPACE
0
ENDTAB
0
ENDSEC
0
SECTION
2
BLOCKS
0
BLOCK
5
20
100
AcDbEntity
100
AcDbBlockBegin
2
*MODEL_SPACE
0
ENDBLK
5
21
100
AcDbEntity
100
AcDbBlockEnd
0
BLOCK
5
1C
100
AcDbEntity
100
AcDbBlockBegin
2
*PAPER_SPACE
0
ENDBLK
5
1D
100
AcDbEntity
100
AcDbBlockEnd
0
ENDSEC
0
SECTION
2
ENTITIES
0
CIRCLE
5
100
100
AcDbEntity
8
0
100
AcDbCircle
10
0
20
0
30
0
40
1.3499999999999999
0
LWPOLYLINE
5
101
100
AcDbEntity
8
0
100
AcDbPolyline
90
60
70
1
43
0.0
10
-0.4403580442629913
20
1.3552819784644716
10
-0.30123971809617084
20
1.417221447926049
10
-0.14895575126893013
20
1.417221447926049
10
2.4477358023231794e-15
20
1.4488829702567481
10
0.14895575126893276
20
1.417221447926049
10
0.30123971809617162
20
1.417221447926049
10
0.4403580442629943
20
1.3552819784644705
10
0.58931379553192687
20
1.323620456133771
10
0.71251374418594182
20
1.2341104539885519
10
0.85163207035276101
20
1.172170984526975
10
0.95352993341460424
20
1.0590019425761403
10
1.0767298820686215
20
0.9694919404309198
10
1.1528716377490444
20
0.83761055101493043
10
1.2547695008108861
20
0.72444150906409754
10
1.3018278345313345
20
0.57961085008577484
10
1.3779695902117584
20
0.44772946066978414
10
1.3938875516353093
20
0.2962801743178608
10
1.4409458853557569
20
0.15144951533954018
10
1.4250278763230031
20
-2.2398368649750732e-07
10
1.4409458377465547
20
-0.15144951033561335
10
1.3938876447729625
20
-0.29627973613965364
10
1.3779696357402089
20
-0.44772947546287784
10
1.3018276523265888
20
-0.57961125932433466
10
1.2547694593529961
20
-0.72444148512837625
10
1.1528719010576574
20
-0.83761018860171621
10
1.0767299176440381
20
-0.96949197246317165
10
0.95352960050996982
20
-1.0590022423248198
10
0.85163204221462885
20
-1.1721709457981624
10
0.71251413213706194
20
-1.2341102300048685
10
0.58931381500299573
20
-1.3236204998665153
10
0.44035761822070335
20
-1.3552821168940026
10
0.30123970814313539
20
-1.4172214011007089
10
0.14895619678228911
20
-1.4172214011007087
10
-2.6225740739176924e-16
20
-1.4488830181281955
10
-0.14895619678229088
20
-1.4172214011007083
10
-0.30123970814313922
20
-1.417221401100708
10
-0.44035761822070668
20
-1.355282116894001
10
-0.58931381500299629
20
-1.3236204998665142
10
-0.7125141321370646
20
-1.2341102300048659
10
-0.85163204221463296
20
-1.1721709457981584
10
-0.95352960050997126
20
-1.059002242324818
10
-1.0767299176440381
20
-0.96949197246317087
10
-1.1528719010576596
20
-0.83761018860171166
10
-1.2547694593529983
20
-0.72444148512837081
10
-1.301827652326589
20
-0.57961125932433333
10
-1.3779696357402087
20
-0.44772947546287728
10
-1.3938876447729625
20
-0.29627973613964953
10
-1.4409458377465547
20
-0.15144951033560833
10
-1.4250278763230029
20
-2.2398368488025331e-07
10
-1.4409458853557566
20
0.15144951533954099
10
-1.393887551635308
20
0.29628017431786458
10
-1.3779695902117561
20
0.44772946066978886
10
-1.3018278345313339
20
0.57961085008577595
10
-1.2547695008108861
20
0.72444150906409754
10
-1.1528716377490416
20
0.83761055101493309
10
-1.0767298820686175
20
0.96949194043092324
10
-0.9535299334146039
20
1.0590019425761408
10
-0.85163207035276123
20
1.1721709845269743
10
-0.71251374418593916
20
1.2341104539885526
10
-0.58931379553192187
20
1.3236204561337728
0
CIRCLE
5
102
100
AcDbEntity
8
0
100
AcDbCircle
10
0
20
0
30
0
40
1.325
0
CIRCLE
5
103
100
AcDbEntity
8
0
100
AcDbCircle
10
0.84999999999999987
20
0.74999999999999967
30
0
40
0.049999999999999906
0
CIRCLE
5
104
100
AcDbEntity
8
0
100
AcDbCircle
10
0.84999999999999987
20
0.74999999999999967
30
0
40
0.049999999999999996
0
CIRCLE
5
105
100
AcDbEntity
8
0
100
AcDbCircle
10
0.84999999999999987
20
0.74999999999999967
30
0
40
0.19142159512453677
0
CIRCLE
5
106
100
AcDbEntity
8
0
100
AcDbCircle
10
0.84999999999999987
20
-0.69999999999999984
30
0
40
0.049999999999999996
0
CIRCLE
5
107
100
AcDbEntity
8
0
100
AcDbCircle
10
0.84999999999999987
20
-0.69999999999999984
30
0
40
0.050000000000000031
0
CIRCLE
5
108
100
AcDbEntity
8
0
100
AcDbCircle
10
0.84999999999999987
20
-0.69999999999999984
30
0
40
0.22386422272273804
0
CIRCLE
5
109
100
AcDbEntity
8
0
100
AcDbCircle
10
-0.84999999999999987
20
-0.69999999999999984
30
0
40
0.17499999999999991
0
ARC
5
110
100
AcDbEntity
8
0
100
AcDbCircle
10
-0.84999999999999987
20
-0.69999999999999984
30
0
40
0.17499999999999991
100
AcDbArc
50
-106.49192444622689
51
185.43684414291451
0
CIRCLE
5
111
100
AcDbEntity
8
0
100
AcDbCircle
10
-0.84999999999999987
20
0.74999999999999967
30
0
40
0.17499999999999982
0
ARC
5
112
100
AcDbEntity
8
0
100
AcDbCircle
10
-0.84999999999999987
20
0.74999999999999967
30
0
40
0.17499999999999988
100
AcDbArc
50
-169.90351776822919
51
87.056186518223839
0
CIRCLE
5
113
100
AcDbEntity
8
0
100
AcDbCircle
10
-0.84999999999999987
20
0.74999999999999967
30
0
40
0.049999999999999996
0
CIRCLE
5
114
100
AcDbEntity
8
0
100
AcDbCircle
10
-0.84999999999999987
20
0.74999999999999967
30
0
40
0.049999999999999996
0
CIRCLE
5
115
100
AcDbEntity
8
0
100
AcDbCircle
10
-0.84999999999999987
20
-0.69999999999999984
30
0
40
0.049999999999999996
0
CIRCLE
5
116
100
AcDbEntity
8
0
100
AcDbCircle
10
-0.84999999999999987
20
-0.69999999999999984
30
0
40
0.049999999999999996
0
CIRCLE
5
117
100
AcDbEntity
8
0
100
AcDbCircle
10
0
20
-0.90000002872286811
30
0
40
0.30000000957428935
0
CIRCLE
5
118
100
AcDbEntity
8
0
100
AcDbCircle
10
0.6000000191485787
20
-0.20000000638285959
30
0
40
0.30000000957428935
0
CIRCLE
5
119
100
AcDbEntity
8
0
100
AcDbCircle
10
0.6000000191485787
20
-0.20000000638285959
30
0
40
0.28499999999999998
0
CIRCLE
5
120
100
AcDbEntity
8
0
100
AcDbCircle
10
0
20
-0.90000002872286811
30
0
40
0.28499999999999998
0
LINE
5
121
100
AcDbEntity
8
0
100
AcDbLine
10
0.6897722514504584
20
-0.47049205119663479
30
0
11
0.28471323404583143
21
-0.9127818266857376
31
0
0
LINE
5
122
100
AcDbEntity
8
0
100
AcDbLine
10
0.34372333760660279
20
-0.075311344116266055
30
0
11
-0.21434759813585957
21
-0.71217003331907747
31
0
0
ENDSEC
0
SECTION
2
OBJECTS
0
DICTIONARY
5
C
100
AcDbDictionary
3
ACAD_GROUP
350
D
3
ACAD_MLINESTYLE
350
17
0
DICTIONARY
5
D
100
AcDbDictionary
0
DICTIONARY
5
1A
330
C
100
AcDbDictionary
0
DICTIONARY
5
17
100
AcDbDictionary
0
ENDSEC
0
EOF
