0
SECTION
2
HEADER
9
$INSUNITS
70
1
9
$ACADVER
1
AC1014
9
$HANDSEED
5
FFFF
0
ENDSEC
0
SECTION
2
TABLES
0
TABLE
2
VPORT
5
8
100
AcDbSymbolTable
0
ENDTAB
0
TABLE
2
LTYPE
5
5
100
AcDbSymbolTable
0
LTYPE
5
14
100
AcDbSymbolTableRecord
100
AcDbLinetypeTableRecord
2
BYBLOCK
70
0
0
LTYPE
5
15
100
AcDbSymbolTableRecord
100
AcDbLinetypeTableRecord
2
BYLAYER
70
0
0
ENDTAB
0
TABLE
2
LAYER
5
2
100
AcDbSymbolTable
70
2
0
LAYER
5
50
100
AcDbSymbolTableRecord
100
AcDbLayerTableRecord
2
0
70
0
6
CONTINUOUS
0
ENDTAB
0
TABLE
2
STYLE
5
3
100
AcDbSymbolTable
70
1
0
STYLE
5
11
100
AcDbSymbolTableRecord
100
AcDbTextStyleTableRecord
2
STANDARD
70
0
0
ENDTAB
0
TABLE
2
VIEW
5
6
100
AcDbSymbolTable
70
0
0
ENDTAB
0
TABLE
2
UCS
5
7
100
AcDbSymbolTable
70
0
0
ENDTAB
0
TABLE
2
APPID
5
9
100
AcDbSymbolTable
70
2
0
APPID
5
12
100
AcDbSymbolTableRecord
100
AcDbRegAppTableRecord
2
ACAD
70
0
0
ENDTAB
0
TABLE
2
DIMSTYLE
5
A
100
AcDbSymbolTable
70
1
0
ENDTAB
0
TABLE
2
BLOCK_RECORD
5
1
100
AcDbSymbolTable
70
1
0
BLOCK_RECORD
5
1F
100
AcDbSymbolTableRecord
100
AcDbBlockTableRecord
2
*MODEL_SPACE
0
BLOCK_RECORD
5
1B
100
AcDbSymbolTableRecord
100
AcDbBlockTableRecord
2
*PAPER_SPACE
0
ENDTAB
0
ENDSEC
0
SECTION
2
BLOCKS
0
BLOCK
5
20
100
AcDbEntity
100
AcDbBlockBegin
2
*MODEL_SPACE
0
ENDBLK
5
21
100
AcDbEntity
100
AcDbBlockEnd
0
BLOCK
5
1C
100
AcDbEntity
100
AcDbBlockBegin
2
*PAPER_SPACE
0
ENDBLK
5
1D
100
AcDbEntity
100
AcDbBlockEnd
0
ENDSEC
0
SECTION
2
ENTITIES
0
CIRCLE
5
100
100
AcDbEntity
8
0
100
AcDbCircle
10
0
20
0
30
0
40
1.3500000000000001
0
CIRCLE
5
101
100
AcDbEntity
8
0
100
AcDbCircle
10
0.9425
20
0
30
0
40
0.077499999999999986
0
LWPOLYLINE
5
102
100
AcDbEntity
8
0
100
AcDbPolyline
90
60
70
1
43
0.0
10
1.4430643271939594
20
-0.30673302064462937
10
1.4265847744427287
20
-0.46352549156242362
10
1.3477567106021977
20
-0.60005970319650581
10
1.2990381471345465
20
-0.75000002393572363
10
1.1935453020566213
20
-0.86716169790420417
10
1.114717238216089
20
-1.0036959095382889
10
0.98717075165476265
20
-1.0963638563227565
10
0.88167790657683942
20
-1.2135255302912349
10
0.7376514511750264
20
-1.2776502396794327
10
0.61010496461369768
20
-1.370318186463902
10
0.45589400158148313
20
-1.4030967385378521
10
0.31186754617967205
20
-1.467221447926049
10
0.1542109630322139
20
-1.467221447926049
10
-2.6225740739176923e-15
20
-1.4999999999999996
10
-0.15421096303221682
20
-1.467221447926049
10
-0.31186754617967272
20
-1.467221447926049
10
-0.45589400158148591
20
-1.4030967385378512
10
-0.61010496461370256
20
-1.3703181864639
10
-0.73765145117502928
20
-1.2776502396794316
10
-0.8816779065768402
20
-1.2135255302912349
10
-0.98717075165476431
20
-1.0963638563227549
10
-1.1147172382160928
20
-1.0036959095382851
10
-1.193545302056624
20
-0.86716169790420139
10
-1.2990381471345469
20
-0.75000002393572307
10
-1.3477567106021984
20
-0.60005970319650437
10
-1.4265847744427309
20
-0.46352549156241862
10
-1.4430643271939609
20
-0.30673302064462549
10
-1.491782890661612
20
-0.15679269990540876
10
-1.4753032903011789
20
2.2398368761210132e-07
10
-1.4917828430524094
20
0.1567926949014827
10
-1.4430644203316143
20
0.30673258246641788
10
-1.4265848199711817
20
0.46352550635551187
10
-1.3477565283974526
20
0.60006011243506419
10
-1.2990381056766567
20
0.75000000000000211
10
-1.1935455653652369
20
0.86716133549098751
10
-1.1147172737915092
20
1.0036959415705375
10
-0.98717041875012912
20
1.0963641560714352
10
-0.88167787843870771
20
1.2135254915624225
10
-0.73765183912615018
20
1.2776500156957478
10
-0.61010498408477187
20
1.3703182301966441
10
-0.45589357553919618
20
1.4030968769673828
10
-0.31186753622663682
20
1.467221401100709
10
-0.15421140854557366
20
1.4672214011007088
10
0
20
1.5000000478714468
10
0.15421140854557458
20
1.4672214011007081
10
0.3118675362266411
20
1.4672214011007081
10
0.45589357553920018
20
1.4030968769673813
10
0.61010498408477243
20
1.370318230196643
10
0.73765183912615262
20
1.2776500156957453
10
0.88167787843871159
20
1.2135254915624187
10
0.98717041875013001
20
1.0963641560714339
10
1.1147172737915094
20
1.0036959415705367
10
1.1935455653652391
20
0.86716133549098318
10
1.2990381056766587
20
0.74999999999999689
10
1.3477565283974529
20
0.60006011243506252
10
1.4265848199711815
20
0.46352550635551093
10
1.4430644203316143
20
0.30673258246641383
10
1.4917828430524094
20
0.15679269490147713
10
1.4753032903011787
20
2.2398368509880115e-07
10
1.4917828906616113
20
-0.15679269990540948
0
CIRCLE
5
103
100
AcDbEntity
8
0
100
AcDbCircle
10
0
20
0
30
0
40
1.2699999999999998
0
ENDSEC
0
SECTION
2
OBJECTS
0
DICTIONARY
5
C
100
AcDbDictionary
3
ACAD_GROUP
350
D
3
ACAD_MLINESTYLE
350
17
0
DICTIONARY
5
D
100
AcDbDictionary
0
DICTIONARY
5
1A
330
C
100
AcDbDictionary
0
DICTIONARY
5
17
100
AcDbDictionary
0
ENDSEC
0
EOF
